<svg width="32" height="32" viewBox="0 0 32 32" fill="none" xmlns="http://www.w3.org/2000/svg">
<path d="M16 32C24.8366 32 32 24.8366 32 16C32 7.16344 24.8366 0 16 0C7.16344 0 0 7.16344 0 16C0 24.8366 7.16344 32 16 32Z" fill="#BDD1DF"/>
<path fill-rule="evenodd" clip-rule="evenodd" d="M12.464 8.91991C12.4642 9.16019 12.4136 9.39792 12.3153 9.61718C12.217 9.83644 12.0734 10.0324 11.8939 10.1921C11.7143 10.3518 11.503 10.4716 11.2737 10.5437C11.0445 10.6157 10.8026 10.6384 10.564 10.6101C10.2359 10.5732 9.92546 10.442 9.67029 10.2324C9.41512 10.0228 9.2261 9.74367 9.12616 9.42895C9.02622 9.11422 9.01962 8.77739 9.10712 8.45898C9.19461 8.14056 9.37247 7.85422 9.6192 7.63476C9.86593 7.41529 10.171 7.27193 10.4974 7.22216C10.8239 7.17238 11.1577 7.21828 11.4586 7.35424C11.7595 7.49019 12.0147 7.71041 12.1931 7.98827C12.3715 8.26614 12.4656 8.5897 12.464 8.91991ZM9 23.01V11.99H12.011V23.01H9ZM14.019 11.99H16.7L17.021 13.1101C17.3798 12.5987 17.8669 12.1908 18.4334 11.9275C18.9999 11.6642 19.6257 11.5547 20.248 11.6101C22.469 11.6101 24.004 12.9001 24.004 16.1001V22.98H21.004V16.5801C21.0245 16.2799 20.9833 15.9787 20.8828 15.6951C20.7822 15.4115 20.6246 15.1514 20.4196 14.9311C20.2146 14.7109 19.9666 14.5352 19.691 14.4145C19.4153 14.2939 19.1179 14.231 18.817 14.23C18.4353 14.2348 18.0646 14.3588 17.7569 14.5847C17.4492 14.8106 17.2199 15.1272 17.101 15.49C17.0145 15.7612 16.9769 16.0457 16.99 16.3301V22.98H14.013V11.99H14.019Z" fill="white"/>
</svg>
